<svg width="19" height="20" viewBox="0 0 19 20" fill="none" xmlns="http://www.w3.org/2000/svg">
<path d="M18.7958 11.3853L17.2125 5.68864C16.7484 4.01976 15.7398 2.55388 14.3469 1.52404C12.9541 0.494189 11.257 -0.040533 9.52537 0.00486712C7.79375 0.0502672 6.12699 0.673184 4.79004 1.7746C3.45308 2.87602 2.52266 4.39273 2.14665 6.08364L0.920818 11.5961C0.785414 12.2053 0.788545 12.837 0.929979 13.4447C1.07141 14.0525 1.34754 14.6207 1.73797 15.1074C2.1284 15.5942 2.62317 15.987 3.18574 16.2569C3.74832 16.5269 4.36434 16.667 4.98832 16.667H5.91665C6.10791 17.6089 6.61893 18.4557 7.3631 19.064C8.10728 19.6722 9.03885 20.0045 9.99998 20.0045C10.9611 20.0045 11.8927 19.6722 12.6369 19.064C13.381 18.4557 13.8921 17.6089 14.0833 16.667H14.7817C15.424 16.667 16.0576 16.5186 16.6331 16.2332C17.2086 15.9478 17.7103 15.5332 18.099 15.0219C18.4877 14.5105 18.753 13.9162 18.874 13.2853C18.995 12.6545 18.9685 12.0042 18.7966 11.3853H18.7958ZM9.99998 18.3336C9.48477 18.3315 8.98279 18.1702 8.56274 17.8719C8.14268 17.5736 7.82505 17.1527 7.65332 16.667H12.3467C12.1749 17.1527 11.8573 17.5736 11.4372 17.8719C11.0172 18.1702 10.5152 18.3315 9.99998 18.3336ZM16.7717 14.0128C16.5394 14.3209 16.2386 14.5705 15.893 14.7419C15.5474 14.9134 15.1666 15.0018 14.7808 15.0003H4.98832C4.61397 15.0002 4.24442 14.9161 3.90694 14.7541C3.56945 14.5921 3.27266 14.3564 3.03845 14.0644C2.80425 13.7724 2.63862 13.4315 2.55379 13.0668C2.46895 12.7022 2.46709 12.3232 2.54832 11.9578L3.77332 6.44448C4.06861 5.11632 4.79941 3.92498 5.84953 3.05985C6.89966 2.19472 8.20884 1.70545 9.56896 1.66982C10.9291 1.63419 12.2621 2.05424 13.3561 2.8632C14.4501 3.67216 15.2422 4.8236 15.6067 6.13448L17.19 11.8311C17.2946 12.2023 17.3113 12.5927 17.2386 12.9714C17.166 13.3501 17.0061 13.7067 16.7717 14.0128Z" fill="#0C1A30"/>
</svg>
