<svg width="20" height="20" viewBox="0 0 20 20" fill="none" xmlns="http://www.w3.org/2000/svg">
<path d="M19.7557 18.5776L14.7815 13.6034C16.137 11.9456 16.8035 9.83014 16.643 7.6947C16.4826 5.55925 15.5075 3.56717 13.9195 2.1305C12.3314 0.693821 10.252 -0.0775273 8.11119 -0.0240008C5.97039 0.0295257 3.93207 0.903832 2.41783 2.41807C0.903588 3.93231 0.0292815 5.97064 -0.024245 8.11143C-0.0777715 10.2522 0.693577 12.3317 2.13025 13.9197C3.56693 15.5077 5.55901 16.4828 7.69445 16.6433C9.82989 16.8037 11.9453 16.1372 13.6032 14.7817L18.5773 19.7559C18.7345 19.9077 18.945 19.9917 19.1635 19.9898C19.382 19.9879 19.591 19.9002 19.7455 19.7457C19.9 19.5912 19.9876 19.3822 19.9895 19.1637C19.9914 18.9452 19.9074 18.7347 19.7557 18.5776ZM8.33315 15.0001C7.01461 15.0001 5.72568 14.6091 4.62935 13.8765C3.53302 13.144 2.67854 12.1028 2.17395 10.8846C1.66937 9.66644 1.53735 8.326 1.79458 7.03279C2.05182 5.73959 2.68676 4.5517 3.61911 3.61935C4.55146 2.687 5.73934 2.05206 7.03255 1.79483C8.32576 1.53759 9.6662 1.66961 10.8844 2.1742C12.1025 2.67878 13.1437 3.53327 13.8763 4.62959C14.6088 5.72592 14.9998 7.01485 14.9998 8.3334C14.9978 10.1009 14.2948 11.7954 13.045 13.0452C11.7952 14.2951 10.1007 14.9981 8.33315 15.0001Z" fill="#0C1A30"/>
</svg>
